# xmcd CD database file
#
# Track frame offsets:
#	150
#	12131
#	27178
#	39605
#	54651
#	68444
#	82822
#	97645
#	110909
#	125147
#	139023
#	152092
#	205758
#	218547
#	233092
#	259396
#	274164
#	297514
#
# Disc length: 4319 seconds
#
# Revision: 1
# Processed by: cddbd v1.5.2PL0 Copyright (c) Steve Scherf et al.
# Submitted via: CDex 1.70beta2
#
DISCID=fa10dd12
DTITLE=Lionel Hampton - Lionel Hampton
DYEAR=1900
DGENRE=Jazz
TTITLE0=Dinah
TTITLE1=Vibraphone Blues
TTITLE2=I'm In The Mood For Swing
TTITLE3=Shoe Shiner's Drag
TTITLE4=Sufflin' At The Hollywood
TTITLE5=Memories Of You
TTITLE6=One Sweet Letter From You
TTITLE7=Blue Because Of You
TTITLE8=Flying Home
TTITLE9=Million Dollar Smile
TTITLE10=Overtime
TTITLE11=Flying On A V-Disc
TTITLE12=I Know That You Know
TTITLE13=Hey, BA-BA-RE-BOP
TTITLE14=Air Mail Special
TTITLE15=Midnight Sun
TTITLE16=Stardust
TTITLE17=Perdido
EXTD=
EXTT0=
EXTT1=
EXTT2=
EXTT3=
EXTT4=
EXTT5=
EXTT6=
EXTT7=
EXTT8=
EXTT9=
EXTT10=
EXTT11=
EXTT12=
EXTT13=
EXTT14=
EXTT15=
EXTT16=
EXTT17=
PLAYORDER=
